<svg width="259" height="40" viewBox="0 0 259 40" fill="none" xmlns="http://www.w3.org/2000/svg">
<path d="M258.976 36.5325V38.6303H257.718C256.821 38.6303 256.121 38.4132 255.62 37.9792C255.118 37.5356 254.868 36.817 254.868 35.8236V32.6118H253.884V30.5574H254.868V28.5898H257.342V30.5574H258.962V32.6118H257.342V35.8525C257.342 36.0936 257.399 36.2672 257.515 36.3733C257.631 36.4794 257.824 36.5325 258.094 36.5325H258.976Z" fill="#00231D"/>
<path d="M249.896 30.4727C250.899 30.4727 251.694 30.7765 252.283 31.384C252.881 31.9916 253.18 32.8355 253.18 33.9157V38.6317H250.72V34.2484C250.72 33.7276 250.581 33.3274 250.301 33.0477C250.031 32.7584 249.655 32.6137 249.172 32.6137C248.69 32.6137 248.309 32.7584 248.03 33.0477C247.76 33.3274 247.625 33.7276 247.625 34.2484V38.6317H245.165V34.2484C245.165 33.7276 245.025 33.3274 244.746 33.0477C244.476 32.7584 244.1 32.6137 243.617 32.6137C243.135 32.6137 242.754 32.7584 242.475 33.0477C242.204 33.3274 242.069 33.7276 242.069 34.2484V38.6317H239.596V30.5595H242.069V31.5721C242.32 31.2346 242.648 30.9693 243.053 30.7765C243.458 30.5739 243.916 30.4727 244.427 30.4727C245.035 30.4727 245.575 30.6029 246.048 30.8632C246.53 31.1236 246.906 31.4949 247.176 31.9772C247.456 31.5335 247.837 31.1719 248.319 30.8922C248.801 30.6125 249.327 30.4727 249.896 30.4727Z" fill="#00231D"/>
<path d="M234.494 38.7496C233.703 38.7496 232.989 38.5808 232.353 38.2433C231.726 37.9057 231.229 37.4234 230.862 36.7965C230.506 36.1696 230.327 35.4366 230.327 34.5975C230.327 33.768 230.51 33.0398 230.877 32.4129C231.243 31.7763 231.745 31.2892 232.382 30.9517C233.018 30.6141 233.732 30.4453 234.523 30.4453C235.314 30.4453 236.027 30.6141 236.664 30.9517C237.3 31.2892 237.802 31.7763 238.169 32.4129C238.535 33.0398 238.718 33.768 238.718 34.5975C238.718 35.4269 238.53 36.16 238.154 36.7965C237.788 37.4234 237.281 37.9057 236.635 38.2433C235.998 38.5808 235.285 38.7496 234.494 38.7496ZM234.494 36.6084C234.966 36.6084 235.367 36.4348 235.695 36.0876C236.032 35.7404 236.201 35.2437 236.201 34.5975C236.201 33.9513 236.037 33.4545 235.709 33.1073C235.391 32.7601 234.995 32.5865 234.523 32.5865C234.04 32.5865 233.64 32.7601 233.322 33.1073C233.004 33.4449 232.844 33.9416 232.844 34.5975C232.844 35.2437 232.999 35.7404 233.307 36.0876C233.626 36.4348 234.021 36.6084 234.494 36.6084Z" fill="#00231D"/>
<path d="M230.012 28.4766V30.4586H227.321V38.6327H224.847V30.4586H222.156V28.4766H230.012Z" fill="#00231D"/>
<path d="M217.951 30.5898C218.896 30.5898 219.668 30.884 220.266 31.4724C220.864 32.0511 221.163 32.895 221.163 34.0042V38.6337H220.164V34.1199C220.164 33.2615 219.947 32.6056 219.513 32.1523C219.089 31.699 218.505 31.4724 217.763 31.4724C217.001 31.4724 216.393 31.7135 215.94 32.1957C215.486 32.678 215.26 33.3869 215.26 34.3224V38.6337H214.247V30.7345H215.26V32.08C215.511 31.5977 215.872 31.2312 216.345 30.9805C216.817 30.7201 217.353 30.5898 217.951 30.5898Z" fill="#00231D"/>
<path d="M211.881 29.2441C211.679 29.2441 211.505 29.1717 211.361 29.027C211.216 28.8824 211.144 28.7039 211.144 28.4917C211.144 28.2796 211.216 28.1059 211.361 27.9709C211.505 27.8262 211.679 27.7539 211.881 27.7539C212.084 27.7539 212.258 27.8262 212.402 27.9709C212.547 28.1059 212.619 28.2796 212.619 28.4917C212.619 28.7039 212.547 28.8824 212.402 29.027C212.258 29.1717 212.084 29.2441 211.881 29.2441ZM212.388 30.7342V38.6334H211.375V30.7342H212.388Z" fill="#00231D"/>
<path d="M209.512 28.6523V38.6349H208.499V30.6633L204.94 38.6349H204.203L200.644 30.6923V38.6349H199.631V28.6523H200.701L204.564 37.3039L208.427 28.6523H209.512Z" fill="#00231D"/>
<path d="M222.536 15.2266V17.0349H193.021V15.2266H222.536Z" fill="#006555"/>
<path d="M222.536 24.1367L222.536 25.9452L211.083 25.9451L211.083 24.1367L222.536 24.1367Z" fill="#006555"/>
<path d="M197.223 27.832V29.6405H193V27.832H197.223Z" fill="#006555"/>
<path d="M194.812 29.119L193.004 29.1161L193.024 16.9033L194.832 16.9062L194.812 29.119Z" fill="#006555"/>
<path d="M222.535 25.3429H220.727V16.3008H222.535V25.3429Z" fill="#006555"/>
<path d="M193.801 10.25V3.21875H196.335C197.152 3.21875 197.766 3.38639 198.176 3.72168C198.586 4.05697 198.791 4.54199 198.791 5.17676C198.791 5.7985 198.586 6.28027 198.176 6.62207C197.769 6.96387 197.15 7.13477 196.32 7.13477H194.68V10.25H193.801ZM194.68 6.41211H196.335C196.843 6.41211 197.229 6.30306 197.492 6.08496C197.759 5.86686 197.893 5.56901 197.893 5.19141C197.893 4.85286 197.774 4.5599 197.536 4.3125C197.299 4.0651 196.898 3.94141 196.335 3.94141H194.68V6.41211ZM201.94 10.3672C201.446 10.3672 201.009 10.2516 200.632 10.0205C200.254 9.78613 199.96 9.46224 199.748 9.04883C199.536 8.63542 199.431 8.1569 199.431 7.61328C199.431 7.06966 199.536 6.59115 199.748 6.17773C199.96 5.76432 200.254 5.44206 200.632 5.21094C201.009 4.97656 201.446 4.85938 201.94 4.85938C202.435 4.85938 202.871 4.97656 203.249 5.21094C203.627 5.44206 203.921 5.76432 204.133 6.17773C204.344 6.59115 204.45 7.06966 204.45 7.61328C204.45 8.1569 204.344 8.63542 204.133 9.04883C203.921 9.46224 203.627 9.78613 203.249 10.0205C202.871 10.2516 202.435 10.3672 201.94 10.3672ZM201.94 9.68359C202.438 9.68359 202.831 9.49805 203.117 9.12695C203.407 8.75586 203.552 8.2513 203.552 7.61328C203.552 6.97201 203.407 6.46745 203.117 6.09961C202.831 5.72852 202.438 5.54297 201.94 5.54297C201.442 5.54297 201.049 5.72852 200.759 6.09961C200.472 6.46745 200.329 6.97201 200.329 7.61328C200.329 8.2513 200.472 8.75586 200.759 9.12695C201.049 9.49805 201.442 9.68359 201.94 9.68359ZM206.604 10.25L205.139 4.97656H206.008L207.263 9.84961H207.111L208.361 4.97656H209.416L210.69 9.88867H210.515L211.779 4.97656H212.648L211.184 10.25H210.031L208.82 5.5332H208.967L207.756 10.25H206.604ZM215.798 10.3672C215.297 10.3672 214.862 10.2549 214.494 10.0303C214.13 9.80566 213.848 9.48828 213.649 9.07812C213.451 8.66471 213.352 8.17806 213.352 7.61816C213.352 7.05501 213.451 6.56673 213.649 6.15332C213.848 5.73991 214.128 5.4209 214.489 5.19629C214.851 4.97168 215.275 4.85938 215.764 4.85938C216.044 4.85938 216.324 4.90495 216.604 4.99609C216.887 5.08398 217.144 5.23861 217.375 5.45996C217.609 5.67806 217.797 5.97917 217.937 6.36328C218.08 6.74414 218.151 7.22591 218.151 7.80859H213.879V7.14453H217.438L217.204 7.45215C217.188 6.98991 217.113 6.61882 216.979 6.33887C216.846 6.05892 216.672 5.8571 216.457 5.7334C216.245 5.60645 216.009 5.54297 215.749 5.54297C215.44 5.54297 215.173 5.62435 214.948 5.78711C214.724 5.94661 214.551 6.18099 214.431 6.49023C214.31 6.79948 214.25 7.17708 214.25 7.62305C214.25 8.2806 214.383 8.78841 214.65 9.14648C214.921 9.50456 215.303 9.68359 215.798 9.68359C216.153 9.68359 216.451 9.59408 216.691 9.41504C216.936 9.236 217.115 8.97721 217.229 8.63867L218.034 8.91211C217.907 9.2181 217.738 9.48014 217.526 9.69824C217.315 9.91309 217.062 10.0791 216.77 10.1963C216.48 10.3102 216.156 10.3672 215.798 10.3672ZM219.392 10.25V4.97656H220.163V6.09473L220.134 5.96777C220.29 5.60319 220.524 5.32812 220.837 5.14258C221.153 4.95378 221.472 4.85938 221.794 4.85938C221.888 4.85938 221.979 4.86751 222.067 4.88379C222.159 4.90007 222.243 4.92773 222.321 4.9668L222.214 5.73828C222.035 5.68294 221.857 5.65527 221.682 5.65527C221.571 5.65527 221.433 5.67806 221.267 5.72363C221.104 5.76595 220.941 5.85384 220.778 5.9873C220.619 6.11751 220.484 6.31283 220.373 6.57324C220.266 6.83366 220.212 7.18034 220.212 7.61328V10.25H219.392ZM225.251 10.3672C224.75 10.3672 224.315 10.2549 223.947 10.0303C223.583 9.80566 223.301 9.48828 223.103 9.07812C222.904 8.66471 222.805 8.17806 222.805 7.61816C222.805 7.05501 222.904 6.56673 223.103 6.15332C223.301 5.73991 223.581 5.4209 223.942 5.19629C224.304 4.97168 224.729 4.85938 225.217 4.85938C225.497 4.85938 225.777 4.90495 226.057 4.99609C226.34 5.08398 226.597 5.23861 226.828 5.45996C227.062 5.67806 227.25 5.97917 227.39 6.36328C227.533 6.74414 227.604 7.22591 227.604 7.80859H223.332V7.14453H226.892L226.657 7.45215C226.641 6.98991 226.566 6.61882 226.433 6.33887C226.299 6.05892 226.125 5.8571 225.91 5.7334C225.699 5.60645 225.463 5.54297 225.202 5.54297C224.893 5.54297 224.626 5.62435 224.401 5.78711C224.177 5.94661 224.004 6.18099 223.884 6.49023C223.763 6.79948 223.703 7.17708 223.703 7.62305C223.703 8.2806 223.837 8.78841 224.104 9.14648C224.374 9.50456 224.756 9.68359 225.251 9.68359C225.606 9.68359 225.904 9.59408 226.145 9.41504C226.389 9.236 226.568 8.97721 226.682 8.63867L227.487 8.91211C227.36 9.2181 227.191 9.48014 226.979 9.69824C226.768 9.91309 226.516 10.0791 226.223 10.1963C225.933 10.3102 225.609 10.3672 225.251 10.3672ZM230.852 10.3672C230.425 10.3672 230.048 10.2549 229.719 10.0303C229.393 9.80566 229.139 9.48665 228.957 9.07324C228.775 8.65983 228.684 8.17155 228.684 7.6084C228.684 7.04525 228.775 6.55859 228.957 6.14844C229.143 5.73503 229.398 5.41764 229.724 5.19629C230.049 4.97168 230.425 4.85938 230.852 4.85938C231.197 4.85938 231.538 4.94564 231.877 5.11816C232.215 5.29069 232.471 5.58203 232.644 5.99219L232.551 6.03125V2.92578H233.371V10.25H232.6V9.15137L232.624 9.22949C232.481 9.61361 232.243 9.90007 231.911 10.0889C231.579 10.2744 231.226 10.3672 230.852 10.3672ZM231.066 9.68359C231.343 9.68359 231.595 9.61198 231.823 9.46875C232.051 9.32552 232.233 9.10254 232.37 8.7998C232.507 8.49382 232.575 8.10319 232.575 7.62793C232.575 6.91829 232.429 6.39421 232.136 6.05566C231.843 5.71387 231.49 5.54297 231.076 5.54297C230.64 5.54297 230.282 5.72363 230.002 6.08496C229.722 6.44303 229.582 6.95736 229.582 7.62793C229.582 8.27897 229.717 8.78516 229.987 9.14648C230.257 9.50456 230.617 9.68359 231.066 9.68359ZM240.026 10.3672C239.681 10.3672 239.34 10.2809 239.001 10.1084C238.662 9.93587 238.407 9.64453 238.234 9.23438L238.278 9.19531V10.25H237.507V2.92578H238.327V6.0752L238.254 5.99707C238.397 5.61296 238.635 5.32812 238.967 5.14258C239.299 4.95378 239.652 4.85938 240.026 4.85938C240.456 4.85938 240.834 4.97168 241.159 5.19629C241.485 5.4209 241.739 5.73991 241.921 6.15332C242.103 6.56673 242.194 7.05501 242.194 7.61816C242.194 8.18132 242.102 8.6696 241.916 9.08301C241.734 9.49316 241.48 9.81055 241.154 10.0352C240.829 10.2565 240.453 10.3672 240.026 10.3672ZM239.802 9.68359C240.238 9.68359 240.596 9.50456 240.876 9.14648C241.156 8.78516 241.296 8.26921 241.296 7.59863C241.296 6.94759 241.161 6.44303 240.891 6.08496C240.62 5.72363 240.261 5.54297 239.812 5.54297C239.538 5.54297 239.286 5.61458 239.055 5.75781C238.827 5.90104 238.645 6.12402 238.508 6.42676C238.371 6.72949 238.303 7.12012 238.303 7.59863C238.303 8.30501 238.449 8.8291 238.742 9.1709C239.035 9.5127 239.388 9.68359 239.802 9.68359ZM243.562 12.1543V11.4707H244.362C244.421 11.4707 244.466 11.4512 244.499 11.4121C244.532 11.3763 244.562 11.3177 244.592 11.2363L244.973 10.1475L244.89 10.5234L242.771 4.97656H243.688L245.368 9.83496L245.188 9.79102L246.862 4.97656H247.771L245.256 11.5635C245.188 11.7425 245.072 11.8857 244.909 11.9932C244.746 12.1006 244.577 12.1543 244.401 12.1543H243.562Z" fill="#111322"/>
<g clip-path="url(#clip0_8779_13354)">
<path d="M157.112 20.2697C155.796 20.1993 155.064 20.6079 154.563 20.9003C154.267 21.0733 152.738 21.9731 149.611 25.6403C151.042 23.0376 152.2 20.9387 152.329 20.7247C152.367 20.6627 152.403 20.6064 152.425 20.569H148.588C147.333 22.8068 144.176 28.414 142.57 31.2747V31.2754H146.508C146.728 30.8716 147.695 29.321 147.987 28.9314C148.61 28.0987 149.291 27.2701 150.032 26.4483C151.325 25.0156 152.957 23.7251 152.959 23.7229C153.056 23.6543 153.152 23.5883 153.247 23.5256C153.249 23.5241 153.251 23.5226 153.254 23.5216C154.097 22.932 154.7 22.7045 155.081 22.6359C155.461 22.5677 155.607 22.8239 155.411 23.3539C155.294 23.679 154.678 24.717 154.468 25.0965C154.174 25.6164 153.869 26.1882 153.643 26.7048C153.374 27.3176 152.983 28.1372 152.983 29.1723C152.983 30.3873 153.876 31.3774 155.49 31.4398C157.452 31.5156 158.307 30.4979 158.455 30.384L158.129 29.6011C157.044 30.4947 156.056 30.8854 156.226 29.5978C156.331 28.9691 156.637 28.1292 157.241 27.0172C157.263 26.982 157.339 26.8445 157.446 26.6489C157.482 26.5873 157.517 26.5256 157.554 26.4625C157.557 26.457 157.557 26.4505 157.559 26.444C157.978 25.6803 158.653 24.4362 158.653 24.4362C159.148 23.5956 159.369 23.1377 159.422 22.4825C159.515 21.3237 158.556 20.3481 157.112 20.2697Z" fill="#083B5C"/>
<path d="M63.8893 10.9731C63.8893 10.9731 56.6855 23.0476 55.981 24.2387C55.585 24.907 55.0396 25.8695 54.6823 26.6833C54.4134 27.2961 54.0225 28.1157 54.0225 29.1515C54.0225 30.3661 54.9151 31.3526 56.5292 31.419C58.3971 31.4948 59.3565 30.4891 59.4948 30.3625L59.1688 29.5796C58.0831 30.4735 57.0945 30.8643 57.2645 29.576C57.3883 28.8471 57.7785 27.8349 58.5935 26.441C59.0721 25.6225 67.8236 10.9688 67.8236 10.9688L63.8893 10.9731Z" fill="#083B5C"/>
<path d="M49.3412 20.293C45.3441 20.293 40.7705 23.1316 40.7705 27.5222C40.7705 30.4486 43.1401 31.4238 45.6808 31.4238C49.8768 31.4238 54.0223 27.9318 54.0223 23.9914C54.0223 23.276 53.6483 20.293 49.3412 20.293ZM44.9672 30.6725C44.2529 30.6725 43.8252 30.1442 43.8252 29.3246C43.8252 26.8394 47.0286 21.044 49.77 21.044C50.4836 21.044 50.912 21.5733 50.912 22.3918C50.9117 24.8774 47.7072 30.6725 44.9672 30.6725Z" fill="#083B5C"/>
<path d="M167.998 20.293C164.467 20.293 159.18 23.6119 159.28 27.9133C159.33 30.0771 161.096 31.3281 163.317 31.434C164.28 31.4801 165.589 31.3215 166.604 30.9616C166.986 30.8256 167.3 30.708 167.561 30.6003L167.313 29.9345C167.04 30.0546 166.719 30.1635 166.358 30.2288C165.327 30.4163 164.438 30.4461 163.723 29.936C163.101 29.4926 162.935 28.5657 162.935 27.7827C162.935 27.4105 162.979 26.9544 163.063 26.5815C165.087 26.0942 171.131 24.8788 171.131 22.185C171.133 20.8666 169.823 20.293 167.998 20.293ZM163.229 25.6995C163.476 24.3923 164.54 22.0232 166.547 21.2337C167.263 20.9518 168.412 21.0073 168.412 21.9568C168.412 24.122 165.763 25.1371 163.229 25.6995Z" fill="#083B5C"/>
<path d="M183.082 20.4177C181.823 20.0912 180.798 20.5247 180.33 20.7892C180.021 20.9645 178.385 22.067 175.137 25.7647C176.591 23.1184 177.776 20.9699 177.909 20.754C177.946 20.6909 177.983 20.6354 178.02 20.5744H174.183C172.912 22.8365 169.781 28.4168 168.175 31.2776H172.112C172.443 30.7109 172.952 29.7817 173.566 28.9596C174.19 28.1262 174.872 27.299 175.611 26.4766C176.097 25.9382 176.589 25.4342 177.086 24.9622C177.267 24.7906 177.448 24.6223 177.63 24.4594C177.728 24.3756 177.827 24.2943 177.925 24.2148C177.944 24.1996 177.963 24.1858 177.982 24.1702C178.064 24.1045 178.145 24.041 178.227 23.9794C178.239 23.971 178.25 23.9623 178.261 23.9533C178.352 23.8854 178.443 23.8194 178.531 23.757C178.534 23.7548 178.537 23.753 178.539 23.7508C178.636 23.6826 178.732 23.6166 178.827 23.5534C178.83 23.552 178.831 23.5513 178.833 23.5494C179.841 22.8808 180.818 22.5227 181.497 22.5833C182.388 22.6624 182.858 23.3561 182.907 23.429L184.209 21.1375C183.99 20.8099 183.696 20.577 183.082 20.4177Z" fill="#083B5C"/>
<path d="M137.051 20.4177C135.792 20.0912 134.767 20.5247 134.299 20.7892C133.989 20.9645 132.354 22.067 129.106 25.7647C130.561 23.1184 131.745 20.9699 131.877 20.754C131.915 20.6909 131.952 20.6354 131.989 20.5744H128.152C126.881 22.8365 123.749 28.4168 122.144 31.2776H126.081C126.412 30.7109 126.921 29.7817 127.535 28.9596C128.158 28.1262 128.84 27.299 129.58 26.4766C130.066 25.9382 130.558 25.4342 131.054 24.9622C131.235 24.7906 131.416 24.6223 131.599 24.4594C131.697 24.3756 131.796 24.2943 131.893 24.2148C131.913 24.1996 131.931 24.1858 131.95 24.1702C132.032 24.1045 132.114 24.041 132.195 23.9794C132.207 23.971 132.218 23.9623 132.23 23.9533C132.321 23.8854 132.411 23.8194 132.499 23.757C132.502 23.7548 132.505 23.753 132.507 23.7508C132.604 23.6826 132.7 23.6166 132.794 23.5534C132.797 23.552 132.799 23.5513 132.802 23.5494C133.809 22.8808 134.786 22.5227 135.465 22.5833C136.356 22.6624 136.826 23.3561 136.876 23.429L138.177 21.1375C137.958 20.8099 137.665 20.577 137.051 20.4177Z" fill="#083B5C"/>
<path d="M84.2229 20.572H80.2897L79.7086 21.5508C78.9773 20.8996 77.9562 20.293 76.3644 20.293C72.3669 20.293 67.7645 23.1294 67.7645 27.5208C67.7645 30.4472 70.1348 31.4224 72.6748 31.4224C73.0668 31.4224 73.5783 31.3204 73.928 31.2029L71.6075 35.1288C71.4721 35.3479 70.9827 36.0888 70.9827 36.0888V36.0895C69.3931 38.3875 67.7024 39.436 65.776 39.436C63.8497 39.436 61.5909 38.6803 61.5909 36.7117C61.5909 34.7439 63.9421 33.5513 65.7815 33.465C67.5364 33.3826 69.6541 33.6616 71.2462 34.3038L71.671 33.5695C70.015 32.7909 67.1744 32.5674 65.9717 32.5674C64.769 32.5674 63.1938 32.7898 62.2503 33.0975C57.5977 34.6162 58.2785 37.2929 59.3703 38.3781C60.7477 39.7455 63.3873 40.363 65.8125 40.3002C67.0015 40.2698 68.0107 40.0673 68.9683 39.8108C70.6636 39.3573 71.8999 38.5613 71.8999 38.5613C73.588 37.4682 74.9986 35.8631 76.1374 34.0952C76.5886 33.3529 84.2229 20.572 84.2229 20.572ZM71.9616 30.6714C71.2473 30.6714 70.8195 30.1431 70.8195 29.3236C70.8195 26.8383 74.0522 21.044 76.7925 21.044C77.5068 21.044 77.9432 21.5145 77.9432 22.3334C77.9425 24.8186 74.7015 30.6714 71.9616 30.6714Z" fill="#083B5C"/>
<path d="M68.1722 19.2024C69.4795 19.2024 70.7995 18.1455 70.7515 16.9214C70.7204 16.1349 69.948 15.7695 69.2709 15.7695C68.026 15.7695 66.6436 16.6185 66.6436 17.9863C66.6432 18.8984 67.3813 19.2024 68.1722 19.2024Z" fill="#083B5C"/>
<path d="M65.9898 29.5887C64.9044 30.4823 63.9154 30.8726 64.0858 29.5851C64.2096 28.8558 64.5998 27.8439 65.4148 26.4497C65.6079 26.1195 67.1448 23.5418 68.9113 20.582H64.9845C63.8966 22.4073 63.0246 23.8705 62.8019 24.2471C62.4063 24.9154 61.8613 25.8783 61.5036 26.692C61.2347 27.3052 60.8438 28.1244 60.8438 29.1606C60.8438 30.3749 61.736 31.365 63.3505 31.4274C65.3134 31.5032 66.1677 30.4852 66.3164 30.3716L65.9898 29.5887Z" fill="#083B5C"/>
<path d="M119.573 29.5793C119.697 28.85 120.088 27.8382 120.902 26.4439C121.095 26.1138 122.632 23.536 124.399 20.5763H120.473C120.224 20.9928 119.988 21.39 119.767 21.7601C119.622 21.4223 119.419 21.1205 119.151 20.8643C118.733 20.4649 118.126 20.2617 117.35 20.2617C116.08 20.2617 114.898 20.5033 113.834 20.9801C112.776 21.4553 111.85 22.0678 111.083 22.8006C110.313 23.536 109.712 24.3589 109.295 25.2463C108.875 26.1395 108.662 27.0981 108.662 27.8727C108.662 29.1671 108.906 31.4434 111.572 31.4434C114.056 31.4434 116.041 28.932 116.263 28.6777C116.271 28.8435 116.282 28.9611 116.294 29.1486C116.318 29.5339 116.418 29.8264 116.489 29.9885C116.81 30.7936 117.618 31.3715 118.839 31.4213C120.707 31.4971 121.667 30.4914 121.805 30.3648L121.479 29.5818C120.392 30.4765 119.403 30.8669 119.573 29.5793ZM114.793 29.0902C114.209 29.5499 113.755 29.8017 113.413 29.8017C113.123 29.8017 112.944 29.6736 112.863 29.4675C112.128 27.6154 114.08 24.3897 114.409 23.8426C114.918 22.9973 115.767 21.8954 116.61 21.3657C117.6 20.7439 118.711 20.9249 118.711 22.0924C118.711 22.9011 118.537 23.6173 118.087 24.6589C117.615 25.755 116.337 27.8752 114.793 29.0902Z" fill="#083B5C"/>
<path d="M147.125 15.3359H143.196C141.057 18.9234 138.309 23.5306 137.887 24.2435C137.492 24.9118 136.947 25.8743 136.589 26.6881C136.32 27.3009 135.929 28.1205 135.929 29.1563C135.929 30.371 136.822 31.3574 138.436 31.4238C140.304 31.4996 141.263 30.494 141.401 30.3673L141.075 29.5844C139.99 30.4783 139.001 30.8691 139.171 29.5808C139.295 28.8519 139.685 27.8397 140.5 26.4458C140.665 26.1631 141.816 24.2337 143.251 21.8283H146.336L147.087 20.5781H143.997C145.036 18.8366 146.155 16.9624 147.125 15.3359Z" fill="#083B5C"/>
<path d="M127.745 9.81607C127.633 6.26892 125.184 3.92375 121.363 2.12895C118.026 0.560177 113.429 0.270297 109.908 0.312382C104.279 0.379864 98.0794 2.01902 93.3246 4.87647C87.8953 8.13955 84.9052 12.8622 84.9052 17.2685C84.9052 21.6497 87.9357 24.7764 92.1122 24.8297C96.3833 24.883 99.2993 21.0754 99.2993 21.0754L98.6504 20.673C98.6504 20.673 96.7738 22.5665 95.0723 22.5386C93.6195 22.5143 92.5313 22.0357 91.7639 21.0453C91.0611 20.1383 90.6893 18.8637 90.6893 17.3599C90.6893 13.5083 92.8709 8.85863 96.3147 6.03564C99.9249 3.07623 104.713 1.49803 109.817 1.43127C113.192 1.38629 115.407 2.05421 116.641 2.55561C109.958 5.93514 105.977 13.0632 102.581 19.4428C98.7872 26.569 95.0355 32.6101 89.3206 32.6101C87.2719 32.6101 86.3223 32.1308 85.4849 31.822L84.7568 33.0403C86.0425 33.5595 87.639 33.9757 89.3824 34.0569C91.5997 34.16 96.1136 33.5399 100.593 30.6933C104.021 28.5143 105.773 26.1383 107.125 24.0504C107.901 22.8513 110.309 18.3173 111.151 16.7373C113.451 12.4228 115.887 7.9215 119.359 4.31158C120.549 5.13624 121.555 7.13965 121.555 8.77373C121.555 13.1709 118.27 16.7105 112.682 17.6316L112.243 18.5129C123.099 18.3253 127.917 15.2774 127.745 9.81607Z" fill="#083B5C"/>
<path d="M41.8846 9.50021C41.8846 6.24512 40.3657 3.96053 36.6072 2.12945C33.2912 0.513881 28.6725 0.270802 25.1518 0.312888C19.5225 0.38037 13.3232 2.01952 8.56814 4.87698C3.13879 8.14005 0.148708 12.8627 0.148708 17.269C0.148708 21.6502 3.17957 24.7769 7.35572 24.8298C11.6268 24.8835 14.5429 21.0759 14.5429 21.0759L13.8943 20.6732C13.8943 20.6732 12.0177 22.5674 10.3162 22.5391C8.86376 22.5148 7.77514 22.0366 7.00777 21.0458C6.30537 20.1388 5.93359 18.8642 5.93359 17.3604C5.93359 13.5088 8.11479 8.85913 11.5589 6.03614C15.1691 3.07674 19.9571 1.49854 25.0619 1.43178C28.4361 1.38679 30.6508 2.05472 31.8849 2.55611C25.2161 5.92948 21.4925 12.5968 17.8455 19.4066C14.4368 25.7699 10.5826 32.5982 4.56452 32.6109C2.51579 32.6156 1.56578 32.1317 0.728749 31.8229L0 33.0412C1.28605 33.5604 2.88252 33.9765 4.62625 34.0578C6.84029 34.1601 11.4236 33.5237 15.8195 30.7051C19.1305 28.5812 21.0165 26.1392 22.3693 24.0516C23.145 22.8529 25.5528 18.3186 26.3949 16.7385C28.6952 12.4241 31.0721 7.96627 34.5447 4.35635C35.4814 5.3606 35.9199 6.60176 35.9199 8.2362C35.9199 12.9008 32.7577 16.1475 27.1702 17.0691L26.7299 17.9503C26.7299 17.9503 27.2919 17.8346 28.1083 17.8346C30.5819 17.8346 33.2421 19.2172 33.224 23.0985C33.2175 24.5269 32.875 26.8601 31.0919 29.5111C29.917 31.2569 28.2083 32.5656 25.8387 33.0075C23.2868 33.4835 21.2088 33.2386 19.1352 31.9971C18.9749 31.9013 18.5202 31.6201 18.1729 31.3415C18.035 31.4445 17.2319 32.0493 17.0074 32.2184C18.54 33.5927 21.4583 34.6662 25.1381 34.6662C28.57 34.6662 32.1549 33.7799 35.097 31.8015C38.4271 29.5623 39.908 26.6791 39.908 23.6859C39.908 20.043 37.6369 17.762 33.4521 17.1217C37.289 16.3616 41.8846 14.2022 41.8846 9.50021Z" fill="#083B5C"/>
</g>
<defs>
<clipPath id="clip0_8779_13354">
<rect width="185" height="39" fill="white" transform="translate(0 0.75)"/>
</clipPath>
</defs>
</svg>
