<svg width="71" height="69" viewBox="0 0 71 69" fill="none" xmlns="http://www.w3.org/2000/svg">
<path d="M68.1984 30.8462L37.9803 2.60919C37.3457 2.0114 36.5153 1.67969 35.6536 1.67969C34.7918 1.67969 33.9615 2.0114 33.3268 2.60919L3.10874 30.8462C2.59407 31.3272 2.23324 31.9565 2.07362 32.6515C1.91401 33.3466 1.96306 34.0749 2.21435 34.7408C2.46564 35.4068 2.90742 35.9792 3.48169 36.383C4.05596 36.7869 4.73588 37.0032 5.4322 37.0036H10.2554V65.2607C10.2554 65.7933 10.4616 66.304 10.8288 66.6805C11.196 67.0571 11.694 67.2686 12.2133 67.2686H28.8039C29.3232 67.2686 29.8212 67.0571 30.1884 66.6805C30.5556 66.304 30.7619 65.7933 30.7619 65.2607V48.1137H40.5191V65.2607C40.5191 65.7933 40.7254 66.304 41.0926 66.6805C41.4598 67.0571 41.9578 67.2686 42.4771 67.2686H59.0677C59.587 67.2686 60.085 67.0571 60.4522 66.6805C60.8194 66.304 61.0257 65.7933 61.0257 65.2607V37.0036H65.8554C66.5517 37.0032 67.2316 36.7869 67.8059 36.383C68.3801 35.9792 68.8219 35.4068 69.0732 34.7408C69.3245 34.0749 69.3736 33.3466 69.2139 32.6515C69.0543 31.9565 68.6935 31.3272 68.1788 30.8462H68.1984ZM60.5297 5.73474H47.2285L62.5072 19.9838V7.76267C62.5098 7.49561 62.4605 7.2307 62.362 6.98345C62.2636 6.7362 62.118 6.51157 61.9338 6.32272C61.7497 6.13388 61.5306 5.9846 61.2895 5.88364C61.0484 5.78268 60.7901 5.73206 60.5297 5.73474Z" fill="#7F56D9"/>
</svg>
