<svg width="71" height="69" viewBox="0 0 71 69" fill="none" xmlns="http://www.w3.org/2000/svg">
<g clip-path="url(#clip0_3698_19028)">
<path d="M5.4426 6C4.09032 6 3 7.05256 3 8.36V13.08C3 14.3874 4.09032 15.44 5.4426 15.44H7.72V65H10.08V33.14H66.72V65H69.08V15.44H71.3574C72.7097 15.44 73.8 14.3874 73.8 13.08V8.36C73.8 7.05256 72.7097 6 71.3574 6H5.4426ZM10.08 17.8H66.72V20.16H10.08V17.8ZM10.08 22.52H66.72V24.88H10.08V22.52ZM10.08 27.24H66.72V29.6H10.08V27.24ZM34.2228 44.704C33.3732 44.704 32.5708 44.6804 31.6882 44.9825C30.8055 45.2751 29.9654 45.8604 28.9883 46.8445L24.1668 51.5928H24.1527L23.9592 51.7816H27.1853L30.5837 48.4352H30.586C31.4286 47.5879 31.9501 47.2717 32.4032 47.1206C32.8564 46.9696 33.3614 46.9649 34.2252 46.9649H39.58V49.3815C39.58 50.6984 38.6549 51.7864 37.515 51.7864H24.1432L15.7086 54.1133C14.6112 54.4178 13.6483 55.2013 13.6483 56.5205V57.6864H14.7622C16.36 57.6628 16.36 60.07 14.7622 60.0464H13.6483V61.2028C13.6483 62.522 14.5687 63.61 15.7086 63.61H19.5672C19.553 63.4684 19.52 63.3338 19.52 63.1899C19.52 60.6458 21.6723 58.6068 24.24 58.6068C26.8077 58.6068 28.96 60.6458 28.96 63.1899C28.96 63.3315 28.927 63.4684 28.9128 63.6076H47.8872C47.873 63.466 47.84 63.3315 47.84 63.1899C47.84 60.6458 49.9923 58.6068 52.56 58.6068C55.1277 58.6068 57.28 60.6458 57.28 63.1899C57.28 63.3315 57.247 63.4684 57.2328 63.6076H61.0867C62.2289 63.6076 63.1517 62.522 63.1517 61.2004V54.1676C63.1517 52.8932 62.2808 51.843 61.1929 51.784H61.1882C61.1551 51.784 61.1268 51.7604 61.0938 51.7604H56.9213L56.5838 51.4536C56.5838 51.4536 53.091 48.1307 51.2785 46.5708L51.3281 46.625C50.1717 45.4167 49.2371 44.7087 47.1981 44.7087H34.2228V44.704ZM44.3 46.9696H46.9668C47.9651 46.9696 48.7628 47.3 49.6737 48.2511L49.702 48.2794L53.5323 51.7864H46.365C45.2251 51.7864 44.3 50.6984 44.3 49.3792V46.9696ZM35.922 55.324H38.4C39.9954 55.3004 39.9954 57.7076 38.4 57.684H36.04C34.4659 57.7666 34.3479 55.4066 35.922 55.324ZM44.1938 55.324H46.6718C48.2695 55.3004 48.2695 57.7076 46.6718 57.684H44.3118C42.74 57.7666 42.622 55.4066 44.1938 55.324ZM61.8537 57.684H63.1257V60.044H61.9717C60.3999 60.1266 60.2796 57.7666 61.8537 57.684ZM23.945 60.5632C22.5998 60.5632 21.585 61.5638 21.585 62.7816C21.585 64.0017 22.5998 65 23.945 65C25.2902 65 26.305 64.0017 26.305 62.7816C26.305 61.5638 25.2902 60.5632 23.945 60.5632ZM52.3948 60.5632C51.0472 60.5632 50.0348 61.5638 50.0348 62.7816C50.0348 64.0017 51.0472 65 52.3948 65C53.74 65 54.7548 64.0017 54.7548 62.7816C54.7548 61.5638 53.74 60.5632 52.3948 60.5632Z" fill="#7F56D9"/>
</g>
<defs>
<clipPath id="clip0_3698_19028">
<rect width="71" height="69" fill="white"/>
</clipPath>
</defs>
</svg>
