<svg width="47" height="46" viewBox="0 0 47 46" fill="none" xmlns="http://www.w3.org/2000/svg">
<path d="M13.713 4.89289C13.3884 4.24354 12.7247 3.83337 11.9987 3.83337C11.2727 3.83337 10.609 4.24354 10.2844 4.89289L9.5106 6.44046C8.88883 7.684 8.74935 7.91223 8.58011 8.08146C8.41089 8.2507 8.18265 8.39017 6.93912 9.01194L5.39155 9.78572C4.7422 10.1104 4.33203 10.7741 4.33203 11.5C4.33203 12.226 4.7422 12.8897 5.39155 13.2144L6.93912 13.9881C8.18265 14.6099 8.41089 14.7494 8.58011 14.9186C8.74935 15.0878 8.88883 15.3161 9.5106 16.5596L10.2844 18.1072C10.609 18.7565 11.2727 19.1667 11.9987 19.1667C12.7247 19.1667 13.3884 18.7565 13.713 18.1072L14.4868 16.5596C15.1086 15.3161 15.248 15.0878 15.4173 14.9186C15.5865 14.7494 15.8147 14.6099 17.0583 13.9881L18.6059 13.2144C19.2552 12.8897 19.6654 12.226 19.6654 11.5C19.6654 10.7741 19.2552 10.1104 18.6059 9.78572L17.0583 9.01194C15.8147 8.39017 15.5865 8.2507 15.4173 8.08146C15.248 7.91223 15.1086 7.684 14.4868 6.44046L13.713 4.89289ZM32.8796 8.72622C32.5549 8.07687 31.8914 7.66671 31.1654 7.66671C30.4393 7.66671 29.7758 8.07687 29.4511 8.72622L27.9034 11.8214C26.7152 14.1977 26.2926 14.9924 25.6835 15.6015C25.0744 16.2106 24.2797 16.6333 21.9033 17.8215L18.8082 19.3691C18.1589 19.6938 17.7487 20.3573 17.7487 21.0834C17.7487 21.8094 18.1589 22.473 18.8082 22.7976L21.9033 24.3453C24.2797 25.5335 25.0744 25.9561 25.6835 26.5652C26.2926 27.1743 26.7152 27.969 27.9034 30.3455L29.4511 33.4405C29.7758 34.0899 30.4393 34.5 31.1654 34.5C31.8914 34.5 32.5549 34.0899 32.8796 33.4405L34.4273 30.3455C35.6155 27.969 36.0381 27.1743 36.6472 26.5652C37.2563 25.9561 38.051 25.5335 40.4275 24.3453L43.5225 22.7976C44.1719 22.473 44.582 21.8094 44.582 21.0834C44.582 20.3573 44.1719 19.6938 43.5225 19.3691L40.4275 17.8215C38.051 16.6333 37.2563 16.2106 36.6472 15.6015C36.0381 14.9924 35.6155 14.1977 34.4273 11.8214L32.8796 8.72622Z" fill="#444CE7"/>
<path fill-rule="evenodd" clip-rule="evenodd" d="M13.7156 24.0595C13.391 23.4102 12.7273 23 12.0013 23C11.2753 23 10.6116 23.4102 10.287 24.0595L10.0172 24.5991C8.82899 26.9755 8.40631 27.7702 7.79721 28.3793C7.18813 28.9882 6.39346 29.4111 4.01706 30.5992L3.47748 30.8691C2.82814 31.1938 2.41797 31.8573 2.41797 32.5833C2.41797 33.3094 2.82814 33.9729 3.47748 34.2976L4.01706 34.5675C6.39346 35.7556 7.18813 36.1784 7.79721 36.7873C8.40631 37.3965 8.82899 38.1911 10.0172 40.5676L10.287 41.1071C10.6116 41.7565 11.2753 42.1667 12.0013 42.1667C12.7273 42.1667 13.391 41.7565 13.7156 41.1071L13.9854 40.5676C15.1736 38.1911 15.5963 37.3965 16.2054 36.7873C16.8145 36.1784 17.6091 35.7556 19.9856 34.5675L20.5251 34.2976C21.1745 33.9729 21.5846 33.3094 21.5846 32.5833C21.5846 31.8573 21.1745 31.1938 20.5251 30.8691L19.9856 30.5992C17.6091 29.4111 16.8145 28.9882 16.2054 28.3793C15.5963 27.7702 15.1736 26.9755 13.9854 24.5991L13.7156 24.0595ZM10.5078 31.0899C11.0818 30.5158 11.5462 29.8621 12.0013 29.0831C12.4564 29.8621 12.9208 30.5158 13.4948 31.0899C14.0688 31.6639 14.7226 32.1281 15.5014 32.5833C14.7226 33.0385 14.0688 33.5028 13.4948 34.0768C12.9208 34.6508 12.4564 35.3046 12.0013 36.0836C11.5462 35.3046 11.0818 34.6508 10.5078 34.0768C9.93379 33.5028 9.27996 33.0385 8.50118 32.5833C9.27996 32.1281 9.93379 31.6639 10.5078 31.0899Z" fill="#444CE7"/>
</svg>
