<svg width="48" height="48" viewBox="0 0 48 48" fill="none" xmlns="http://www.w3.org/2000/svg">
<rect width="48" height="48" rx="24" fill="#F5F3FF"/>
<path d="M16.6667 34C14.824 34 13.2522 33.3608 11.9513 32.0823C10.6504 30.8039 10 29.2414 10 27.395C10 25.7386 10.5329 24.2817 11.5987 23.0243C12.6644 21.767 13.9862 21.0221 15.564 20.7897C15.9913 18.7966 16.9936 17.1667 18.5707 15.9C20.1476 14.6333 21.9573 14 24 14C26.4142 14 28.4622 14.8409 30.144 16.5227C31.8258 18.2044 32.6667 20.2524 32.6667 22.6667V23.3333H33.077C34.4821 23.4427 35.6539 24.0077 36.5923 25.0283C37.5308 26.0488 38 27.2616 38 28.6667C38 30.1538 37.4872 31.4144 36.4617 32.4487C35.4359 33.4829 34.1794 34 32.6923 34H25.4103C24.7368 34 24.1667 33.7667 23.7 33.3C23.2333 32.8333 23 32.2632 23 31.5897V24.287L20.5333 26.7127L19.1283 25.3207L24 20.4487L28.8717 25.3207L27.4667 26.7127L25 24.287V31.5897C25 31.6923 25.0428 31.7863 25.1283 31.8717C25.2137 31.9572 25.3077 32 25.4103 32H32.6667C33.6 32 34.3889 31.6778 35.0333 31.0333C35.6778 30.3889 36 29.6 36 28.6667C36 27.7333 35.6778 26.9444 35.0333 26.3C34.3889 25.6556 33.6 25.3333 32.6667 25.3333H30.6667V22.6667C30.6667 20.8222 30.0167 19.25 28.7167 17.95C27.4167 16.65 25.8444 16 24 16C22.1556 16 20.5833 16.65 19.2833 17.95C17.9833 19.25 17.3333 20.8222 17.3333 22.6667H16.641C15.3777 22.6667 14.2883 23.1222 13.373 24.0333C12.4577 24.9444 12 26.0444 12 27.3333C12 28.6222 12.4556 29.7222 13.3667 30.6333C14.2778 31.5444 15.3778 32 16.6667 32H20V34H16.6667Z" fill="#7839EE"/>
</svg>
